<!-- Generated by IcoMoon.io -->
<svg version="1.1" xmlns="http://www.w3.org/2000/svg" width="32" height="32" viewBox="0 0 32 32">
<title>directions_car</title>
<path d="M6.688 14.688h18.625l-2-6h-14.625zM23.312 21.312q0.812 0 1.407-0.593t0.593-1.407-0.593-1.407-1.407-0.593-1.407 0.593-0.593 1.407 0.593 1.407 1.407 0.593zM8.688 21.312q0.812 0 1.407-0.593t0.593-1.407-0.593-1.407-1.407-0.593-1.407 0.593-0.593 1.407 0.593 1.407 1.407 0.593zM25.251 8l2.751 8v10.688q0 0.563-0.375 0.937t-0.937 0.375h-1.375q-0.563 0-0.937-0.375t-0.375-0.937v-1.375h-16v1.375q0 0.563-0.375 0.937t-0.937 0.375h-1.375q-0.563 0-0.937-0.375t-0.375-0.937v-10.688l2.751-8q0.375-1.312 1.937-1.312h14.625q1.563 0 1.937 1.312z"></path>
</svg>
