<!-- Generated by IcoMoon.io -->
<svg version="1.1" xmlns="http://www.w3.org/2000/svg" width="30" height="32" viewBox="0 0 30 32">
<title>snowflake-o</title>
<path d="M27.965 19.946l-2.982 0.59 3.321 1.911c0.536 0.304 0.733 1.018 0.41 1.553s-1.018 0.733-1.553 0.41l-3.321-1.893 0.982 2.857c0.501 1.429-1.679 2.161-2.161 0.75l-1.822-5.358-4.839-2.786v5.59l3.714 4.25c1 1.125-0.733 2.642-1.714 1.501l-2-2.286v3.822c0 0.625-0.518 1.143-1.143 1.143s-1.143-0.518-1.143-1.143v-3.822l-2 2.286c-0.982 1.143-2.714-0.375-1.714-1.501l3.714-4.25v-5.59l-4.839 2.786-1.822 5.358c-0.482 1.41-2.661 0.679-2.161-0.75l0.982-2.857-3.321 1.893c-0.536 0.321-1.232 0.125-1.553-0.41s-0.125-1.25 0.41-1.553l3.321-1.911-2.982-0.59c-1.482-0.304-1.035-2.536 0.447-2.25l5.536 1.107 4.839-2.803-4.839-2.803-5.536 1.107c-0.072 0.018-0.161 0.018-0.232 0.018-1.358 0-1.553-2-0.214-2.267l2.982-0.59-3.321-1.911c-0.536-0.304-0.733-1.018-0.41-1.553 0.321-0.553 1.018-0.733 1.553-0.41l3.321 1.893-0.982-2.857c-0.501-1.429 1.679-2.161 2.161-0.75l1.822 5.358 4.839 2.786v-5.59l-3.714-4.25c-1-1.125 0.733-2.642 1.714-1.501l2 2.286v-3.822c0-0.625 0.518-1.143 1.143-1.143s1.143 0.518 1.143 1.143v3.822l2-2.286c0.982-1.143 2.714 0.375 1.714 1.501l-3.714 4.25v5.59l4.839-2.786 1.822-5.358c0.482-1.41 2.661-0.679 2.161 0.75l-0.982 2.857 3.321-1.893c0.536-0.321 1.232-0.125 1.553 0.41s0.125 1.25-0.41 1.553l-3.321 1.911 2.982 0.59c1.339 0.267 1.143 2.267-0.214 2.267-0.072 0-0.161 0-0.232-0.018l-5.536-1.107-4.839 2.803 4.839 2.803 5.536-1.107c1.482-0.286 1.928 1.946 0.447 2.25z"></path>
</svg>
