<svg aria-hidden="true" style="position: absolute; width: 0; height: 0; overflow: hidden;" version="1.1" xmlns="http://www.w3.org/2000/svg" xmlns:xlink="http://www.w3.org/1999/xlink">
<defs>
<symbol id="icon-groups" viewBox="0 0 24 24">
<path d="M12 12.75q1.219 0 2.297 0.258t1.922 0.633 1.313 1.125 0.469 1.594v1.641h-12v-1.594q0-0.891 0.469-1.641t1.313-1.125 1.922-0.633 2.297-0.258zM3.984 12.984q0.844 0 1.43-0.586t0.586-1.383q0-0.844-0.586-1.43t-1.43-0.586q-0.797 0-1.383 0.586t-0.586 1.43q0 0.797 0.586 1.383t1.383 0.586zM5.109 14.109q-0.234-0.047-0.516-0.070t-0.609-0.023q-0.75 0-1.43 0.141t-1.336 0.422q-0.563 0.234-0.891 0.75t-0.328 1.125v1.547h4.5v-1.594q0-1.219 0.609-2.297zM20.016 12.984q0.797 0 1.383-0.586t0.586-1.383q0-0.844-0.586-1.43t-1.383-0.586q-0.844 0-1.43 0.586t-0.586 1.43q0 0.797 0.586 1.383t1.43 0.586zM24 16.453q0-0.609-0.328-1.125t-0.891-0.75q-0.656-0.281-1.336-0.422t-1.43-0.141q-0.328 0-0.609 0.023t-0.516 0.070q0.609 1.078 0.609 2.297v1.594h4.5v-1.547zM12 6q0.844 0 1.523 0.398t1.078 1.078 0.398 1.523-0.398 1.523-1.078 1.078-1.523 0.398-1.523-0.398-1.078-1.078-0.398-1.523 0.398-1.523 1.078-1.078 1.523-0.398z"></path>
</symbol>
<symbol id="icon-local_offer" viewBox="0 0 24 24">
<path d="M5.484 6.984q0.609 0 1.055-0.445t0.445-1.055-0.445-1.055-1.055-0.445-1.055 0.445-0.445 1.055 0.445 1.055 1.055 0.445zM21.422 11.578q0.563 0.563 0.563 1.406t-0.563 1.406l-7.031 7.031q-0.563 0.563-1.406 0.563t-1.406-0.563l-9-9q-0.563-0.563-0.563-1.406v-7.031q0-0.797 0.586-1.383t1.383-0.586h7.031q0.844 0 1.406 0.563z"></path>
</symbol>
<symbol id="icon-beach_access" viewBox="0 0 24 24">
<path d="M17.391 8.813q-2.344-2.344-5.414-3.094t-5.977 0.234q2.25-0.281 4.945 0.867t4.992 3.445l-5.719 5.719q-2.297-2.297-3.445-4.992t-0.867-4.945q-0.984 2.906-0.234 5.977t3.094 5.414l-2.859 2.859q-2.953-2.953-2.953-7.148t2.953-7.148q0-0.047 0.047-0.047 3.281-3.281 7.875-2.906 3.797 0.281 6.422 2.906zM13.078 14.578l1.453-1.453 6.422 6.469-1.453 1.406z"></path>
</symbol>
<symbol id="icon-aircraft-take-off" viewBox="0 0 32 32">
<path d="M31.792 10.325c0.19 0.411 0.203 2.064-7.814 5.827l-7.861 3.69c-2.736 1.285-6.706 2.974-8.456 3.442-1.226 0.326-2.395-0.506-2.395-0.506s-3.53-3.16-4.467-3.87c-0.936-0.71-0.856-1.072 0.344-1.456 0.747-0.238 5.008 0.789 6.824 1.248 2.142-1.28 4.099-2.378 5.026-2.877-2.234-1.653-6.413-4.739-7.746-5.68-1.278-0.904 0.016-1.229 0.016-1.229 0.589-0.158 1.859-0.365 2.499-0.23 4.354 0.91 11.621 3.314 12.178 3.498 1.331-0.698 3.405-1.747 4.675-2.344 3.32-1.558 6.923-0.059 7.178 0.488z"></path>
</symbol>
<symbol id="icon-bookmark" viewBox="0 0 32 32">
<path d="M22.4 3.2v27.2l-6.4-6.4-6.4 6.4v-27.2c0-0.885 0.936-1.632 1.6-1.6h9.6c1.102-0.032 1.6 0.715 1.6 1.6z"></path>
</symbol>
<symbol id="icon-chat" viewBox="0 0 32 32">
<path d="M9.28 19.52v-9.92h-6.080c-1.76 0-3.2 1.44-3.2 3.2v9.6c0 1.76 1.44 3.2 3.2 3.2h1.6v4.8l4.8-4.8h8c1.76 0 3.2-1.44 3.2-3.2v-2.912c-0.102 0.022-0.211 0.034-0.32 0.034l-11.2-0.002zM28.8 1.6h-14.4c-1.76 0-3.2 1.44-3.2 3.2v12.8h11.2l4.8 4.8v-4.8h1.6c1.76 0 3.2-1.438 3.2-3.2v-9.6c0-1.76-1.44-3.2-3.2-3.2z"></path>
</symbol>
<symbol id="icon-chevron-right" viewBox="0 0 32 32">
<path d="M14.661 7.226c0.669 0.653 7.203 7.512 7.203 7.512 0.357 0.35 0.536 0.806 0.536 1.262s-0.179 0.912-0.536 1.259c0 0-6.534 6.862-7.203 7.512-0.669 0.653-1.872 0.698-2.584 0-0.714-0.694-0.77-1.666 0-2.518l5.995-6.253-5.995-6.253c-0.77-0.853-0.714-1.826 0-2.522s1.915-0.654 2.584 0z"></path>
</symbol>
<symbol id="icon-directions_car" viewBox="0 0 32 32">
<path d="M6.688 14.688h18.625l-2-6h-14.625zM23.312 21.312q0.812 0 1.407-0.593t0.593-1.407-0.593-1.407-1.407-0.593-1.407 0.593-0.593 1.407 0.593 1.407 1.407 0.593zM8.688 21.312q0.812 0 1.407-0.593t0.593-1.407-0.593-1.407-1.407-0.593-1.407 0.593-0.593 1.407 0.593 1.407 1.407 0.593zM25.251 8l2.751 8v10.688q0 0.563-0.375 0.937t-0.937 0.375h-1.375q-0.563 0-0.937-0.375t-0.375-0.937v-1.375h-16v1.375q0 0.563-0.375 0.937t-0.937 0.375h-1.375q-0.563 0-0.937-0.375t-0.375-0.937v-10.688l2.751-8q0.375-1.312 1.937-1.312h14.625q1.563 0 1.937 1.312z"></path>
</symbol>
<symbol id="icon-home" viewBox="0 0 32 32">
<path d="M29.875 17.6h-2.675v9.6c0 0.712-0.31 1.6-1.6 1.6h-6.4v-9.6h-6.4v9.6h-6.4c-1.29 0-1.6-0.888-1.6-1.6v-9.6h-2.675c-0.957 0-0.752-0.518-0.096-1.197l12.838-12.851c0.312-0.323 0.722-0.483 1.133-0.499 0.411 0.016 0.821 0.174 1.133 0.499l12.837 12.85c0.658 0.68 0.862 1.198-0.094 1.198z"></path>
</symbol>
<symbol id="icon-key" viewBox="0 0 32 32">
<path d="M28.306 7.56c-0.805-4.763-5.152-7.947-9.71-7.106s-8.41 4.506-7.605 9.272c0.171 1.026 0.653 2.63 1.221 3.784l-8.28 12.357c-0.306 0.456-0.478 1.278-0.387 1.826l0.533 3.154c0.093 0.547 0.595 0.915 1.12 0.822l2.426-0.45c0.525-0.094 1.19-0.557 1.478-1.022l3.275-5.298 0.029-0.035 2.218-0.41 3.824-6.206c1.256 0.222 3.059 0.147 4.125-0.050 4.557-0.842 6.539-5.872 5.734-10.638zM24.266 10.003c-1.254 1.872-2.534 0.554-4.325-0.76-1.79-1.309-3.416-2.115-2.163-3.987s3.722-2.328 5.515-1.016c1.792 1.31 2.226 3.891 0.973 5.763z"></path>
</symbol>
<symbol id="icon-local_cafe" viewBox="0 0 32 32">
<path d="M5.312 25.312h21.375v2.688h-21.375v-2.688zM26.688 10.688v-4h-2.688v4h2.688zM26.688 4q1.125 0 1.875 0.781t0.751 1.907v4q0 1.125-0.751 1.875t-1.875 0.751h-2.688v4q0 2.188-1.563 3.781t-3.751 1.593h-8q-2.188 0-3.781-1.593t-1.593-3.781v-13.312h21.375z"></path>
</symbol>
<symbol id="icon-location-pin" viewBox="0 0 32 32">
<path d="M16 3.214c-4.419 0-8 3.566-8 7.984 0 7.638 8 17.6 8 17.6s8-9.963 8-17.6c0-4.416-3.581-7.984-8-7.984zM16 15.616c-2.387 0-4.32-1.934-4.32-4.32s1.933-4.32 4.32-4.32c2.384 0 4.318 1.934 4.318 4.32s-1.934 4.32-4.318 4.32z"></path>
</symbol>
<symbol id="icon-magnifying-glass" viewBox="0 0 32 32">
<path d="M28.072 24.747l-6.046-6.046c0.912-1.496 1.437-3.256 1.437-5.136 0-5.467-4.738-10.203-10.205-10.203s-9.898 4.43-9.898 9.898c0 5.466 4.738 10.203 10.203 10.203 1.819 0 3.52-0.494 4.984-1.35l6.078 6.082c0.595 0.594 1.56 0.594 2.154 0l1.509-1.509c0.594-0.594 0.378-1.344-0.216-1.938zM6.406 13.259c0-3.786 3.067-6.853 6.851-6.853s7.158 3.371 7.158 7.158c0 3.784-3.069 6.853-6.853 6.853s-7.157-3.374-7.157-7.158z"></path>
</symbol>
<symbol id="icon-map" viewBox="0 0 32 32">
<path d="M31.115 5.949l-9.6-4.8c-0.45-0.226-0.981-0.226-1.432 0l-9.008 4.504-8.97-2.99c-0.49-0.163-1.024-0.082-1.442 0.221s-0.664 0.784-0.664 1.298v20.802c0 0.606 0.342 1.16 0.885 1.43l9.6 4.8c0.226 0.112 0.47 0.17 0.715 0.17s0.491-0.056 0.715-0.17l9.008-4.502 8.97 2.99c0.488 0.16 1.024 0.078 1.442-0.222s0.664-0.784 0.664-1.296v-20.803c0.002-0.606-0.341-1.16-0.883-1.43zM12.8 8.37l6.4-3.2v18.821l-6.4 3.2v-18.821zM3.2 6.4l6.4 2.133v18.658l-6.4-3.2v-17.59zM28.8 25.963l-6.4-2.134v-18.659l6.4 3.2v17.594z"></path>
</symbol>
<symbol id="icon-meeting_room" viewBox="0 0 32 32">
<path d="M13.312 14.688v2.625h2.688v-2.625h-2.688zM18.688 8v20h-14.688v-2.688h2.688v-21.312h12v1.312h6.625v20h2.688v2.688h-5.312v-20h-4z"></path>
</symbol>
<symbol id="icon-restaurant" viewBox="0 0 32 32">
<path d="M21.312 8q0-1.875 2.031-3.593t4.656-1.719v26.625h-3.312v-10.625h-3.375v-10.688zM14.688 12v-9.312h2.625v9.312q0 2.125-1.437 3.656t-3.563 1.656v12h-3.312v-12q-2.125-0.125-3.563-1.656t-1.437-3.656v-9.312h2.688v9.312h2.625v-9.312h2.688v9.312h2.688z"></path>
</symbol>
<symbol id="icon-signal" viewBox="0 0 32 32">
<path d="M16 22.4c-1.75 0-3.17 1.43-3.17 3.2 0 1.766 1.419 3.2 3.17 3.2s3.168-1.434 3.168-3.2c0-1.768-1.418-3.2-3.168-3.2zM9.28 18.813l2.24 2.262c2.474-2.499 6.486-2.499 8.962 0l2.238-2.262c-3.71-3.749-9.73-3.749-13.44 0zM4.8 14.285l2.24 2.262c4.947-4.997 12.97-4.997 17.918 0l2.242-2.262c-6.184-6.246-16.216-6.246-22.4 0zM0.318 9.76l2.24 2.262c7.422-7.498 19.458-7.498 26.882 0l2.24-2.262c-8.659-8.747-22.701-8.747-31.362 0z"></path>
</symbol>
<symbol id="icon-snowflake-o" viewBox="0 0 30 32">
<path d="M27.965 19.946l-2.982 0.59 3.321 1.911c0.536 0.304 0.733 1.018 0.41 1.553s-1.018 0.733-1.553 0.41l-3.321-1.893 0.982 2.857c0.501 1.429-1.679 2.161-2.161 0.75l-1.822-5.358-4.839-2.786v5.59l3.714 4.25c1 1.125-0.733 2.642-1.714 1.501l-2-2.286v3.822c0 0.625-0.518 1.143-1.143 1.143s-1.143-0.518-1.143-1.143v-3.822l-2 2.286c-0.982 1.143-2.714-0.375-1.714-1.501l3.714-4.25v-5.59l-4.839 2.786-1.822 5.358c-0.482 1.41-2.661 0.679-2.161-0.75l0.982-2.857-3.321 1.893c-0.536 0.321-1.232 0.125-1.553-0.41s-0.125-1.25 0.41-1.553l3.321-1.911-2.982-0.59c-1.482-0.304-1.035-2.536 0.447-2.25l5.536 1.107 4.839-2.803-4.839-2.803-5.536 1.107c-0.072 0.018-0.161 0.018-0.232 0.018-1.358 0-1.553-2-0.214-2.267l2.982-0.59-3.321-1.911c-0.536-0.304-0.733-1.018-0.41-1.553 0.321-0.553 1.018-0.733 1.553-0.41l3.321 1.893-0.982-2.857c-0.501-1.429 1.679-2.161 2.161-0.75l1.822 5.358 4.839 2.786v-5.59l-3.714-4.25c-1-1.125 0.733-2.642 1.714-1.501l2 2.286v-3.822c0-0.625 0.518-1.143 1.143-1.143s1.143 0.518 1.143 1.143v3.822l2-2.286c0.982-1.143 2.714 0.375 1.714 1.501l-3.714 4.25v5.59l4.839-2.786 1.822-5.358c0.482-1.41 2.661-0.679 2.161 0.75l-0.982 2.857 3.321-1.893c0.536-0.321 1.232-0.125 1.553 0.41s0.125 1.25-0.41 1.553l-3.321 1.911 2.982 0.59c1.339 0.267 1.143 2.267-0.214 2.267-0.072 0-0.161 0-0.232-0.018l-5.536-1.107-4.839 2.803 4.839 2.803 5.536-1.107c1.482-0.286 1.928 1.946 0.447 2.25z"></path>
</symbol>
<symbol id="icon-star" viewBox="0 0 20 20">
<path d="M10 1.3l2.388 6.722h6.412l-5.232 3.948 1.871 6.928-5.439-4.154-5.438 4.154 1.87-6.928-5.233-3.948h6.412l2.389-6.722z"></path>
</symbol>
<symbol id="icon-gift" viewBox="0 0 32 32">
<path d="M24.11 10c0.566-0.402 1.11-0.851 1.608-1.348 1.044-1.044 1.742-2.328 1.966-3.616 0.246-1.412-0.115-2.723-0.988-3.597-0.697-0.697-1.641-1.065-2.73-1.065-1.551 0-3.185 0.744-4.483 2.043-2.077 2.077-3.288 4.945-3.94 6.991-0.482-2.056-1.444-4.833-3.313-6.702-1.003-1.003-2.285-1.518-3.495-1.518-0.989 0-1.931 0.344-2.633 1.046-1.562 1.562-1.351 4.306 0.471 6.128 0.65 0.65 1.409 1.189 2.21 1.638h-6.782v8h2v14h24v-14h2v-8h-5.89zM21.073 4.007c0.866-0.866 1.948-1.384 2.892-1.384 0.334 0 0.803 0.070 1.139 0.406 0.813 0.813 0.357 2.697-0.977 4.031-1.373 1.373-3.221 2.318-4.826 2.939h-1.584c0.58-1.798 1.627-4.264 3.356-5.993zM7.31 5.028c-0.022-0.285-0.002-0.82 0.381-1.203 0.32-0.32 0.743-0.387 1.042-0.387v0c0.664 0 1.358 0.313 1.904 0.859 1.059 1.058 1.93 2.743 2.521 4.871 0.016 0.057 0.031 0.115 0.047 0.171-0.057-0.015-0.114-0.031-0.171-0.047-2.128-0.591-3.813-1.462-4.871-2.521-0.495-0.495-0.805-1.13-0.853-1.743zM14 30h-8v-13h8v13zM14 16h-10v-4h10v4zM26 30h-8v-13h8v13zM28 16h-10v-4h10v4z"></path>
</symbol>
</defs>
</svg>
